<?xml version="1.0" encoding="utf-8" standalone="no"?>
<!DOCTYPE svg PUBLIC "-//W3C//DTD SVG 1.1//EN"
  "http://www.w3.org/Graphics/SVG/1.1/DTD/svg11.dtd">
<svg xmlns:xlink="http://www.w3.org/1999/xlink" width="568.531875pt" height="280.745688pt" viewBox="0 0 568.531875 280.745688" xmlns="http://www.w3.org/2000/svg" version="1.1">
 <metadata>
  <rdf:RDF xmlns:dc="http://purl.org/dc/elements/1.1/" xmlns:cc="http://creativecommons.org/ns#" xmlns:rdf="http://www.w3.org/1999/02/22-rdf-syntax-ns#">
   <cc:Work>
    <dc:type rdf:resource="http://purl.org/dc/dcmitype/StillImage"/>
    <dc:date>2026-01-20T20:17:56.669086</dc:date>
    <dc:format>image/svg+xml</dc:format>
    <dc:creator>
     <cc:Agent>
      <dc:title>Matplotlib v3.10.7, https://matplotlib.org/</dc:title>
     </cc:Agent>
    </dc:creator>
   </cc:Work>
  </rdf:RDF>
 </metadata>
 <defs>
  <style type="text/css">*{stroke-linejoin: round; stroke-linecap: butt}</style>
 </defs>
 <g id="figure_1">
  <g id="patch_1">
   <path d="M 0 280.745688 
L 568.531875 280.745688 
L 568.531875 0 
L 0 0 
z
" style="fill: #ffffff"/>
  </g>
  <g id="axes_1">
   <g id="patch_2">
    <path d="M 42.743125 230.056 
L 411.200625 230.056 
L 411.200625 7.2 
L 42.743125 7.2 
z
" style="fill: #ffffff"/>
   </g>
   <g id="patch_3">
    <path d="M 70.656572 230.056 
L 159.979602 230.056 
L 159.979602 209.421185 
L 70.656572 209.421185 
z
" clip-path="url(#p0ec94eb774)" style="fill: #fde725"/>
   </g>
   <g id="patch_4">
    <path d="M 182.31036 230.056 
L 271.63339 230.056 
L 271.63339 230.056 
L 182.31036 230.056 
z
" clip-path="url(#p0ec94eb774)" style="fill: #fde725"/>
   </g>
   <g id="patch_5">
    <path d="M 293.964148 230.056 
L 383.287178 230.056 
L 383.287178 212.369016 
L 293.964148 212.369016 
z
" clip-path="url(#p0ec94eb774)" style="fill: #fde725"/>
   </g>
   <g id="patch_6">
    <path d="M 70.656572 209.421185 
L 159.979602 209.421185 
L 159.979602 203.525524 
L 70.656572 203.525524 
z
" clip-path="url(#p0ec94eb774)" style="fill: #b8de29"/>
   </g>
   <g id="patch_7">
    <path d="M 182.31036 230.056 
L 271.63339 230.056 
L 271.63339 212.369016 
L 182.31036 212.369016 
z
" clip-path="url(#p0ec94eb774)" style="fill: #b8de29"/>
   </g>
   <g id="patch_8">
    <path d="M 293.964148 212.369016 
L 383.287178 212.369016 
L 383.287178 209.421185 
L 293.964148 209.421185 
z
" clip-path="url(#p0ec94eb774)" style="fill: #b8de29"/>
   </g>
   <g id="patch_9">
    <path d="M 70.656572 203.525524 
L 159.979602 203.525524 
L 159.979602 176.995048 
L 70.656572 176.995048 
z
" clip-path="url(#p0ec94eb774)" style="fill: #6dcd59"/>
   </g>
   <g id="patch_10">
    <path d="M 182.31036 212.369016 
L 271.63339 212.369016 
L 271.63339 118.038434 
L 182.31036 118.038434 
z
" clip-path="url(#p0ec94eb774)" style="fill: #6dcd59"/>
   </g>
   <g id="patch_11">
    <path d="M 293.964148 209.421185 
L 383.287178 209.421185 
L 383.287178 17.81219 
L 293.964148 17.81219 
z
" clip-path="url(#p0ec94eb774)" style="fill: #6dcd59"/>
   </g>
   <g id="matplotlib.axis_1">
    <g id="xtick_1">
     <g id="line2d_1">
      <defs>
       <path id="m82a33cf7c9" d="M 0 0 
L 0 3.5 
" style="stroke: #000000; stroke-width: 0.8"/>
      </defs>
      <g>
       <use xlink:href="#m82a33cf7c9" x="115.318087" y="230.056" style="stroke: #000000; stroke-width: 0.8"/>
      </g>
     </g>
     <g id="text_1">
      <!-- Тільки данні -->
      <g transform="translate(82.4259 244.654438) scale(0.1 -0.1)">
       <defs>
        <path id="DejaVuSans-422" d="M -19 4666 
L 3928 4666 
L 3928 4134 
L 2272 4134 
L 2272 0 
L 1638 0 
L 1638 4134 
L -19 4134 
L -19 4666 
z
" transform="scale(0.015625)"/>
        <path id="DejaVuSans-456" d="M 603 3500 
L 1178 3500 
L 1178 0 
L 603 0 
L 603 3500 
z
M 603 4863 
L 1178 4863 
L 1178 4134 
L 603 4134 
L 603 4863 
z
" transform="scale(0.015625)"/>
        <path id="DejaVuSans-43b" d="M 238 0 
L 238 478 
Q 806 566 981 959 
Q 1194 1513 1194 2928 
L 1194 3500 
L 3559 3500 
L 3559 0 
L 2984 0 
L 2984 3041 
L 1769 3041 
L 1769 2694 
Q 1769 1344 1494 738 
Q 1200 91 238 0 
z
" transform="scale(0.015625)"/>
        <path id="DejaVuSans-44c" d="M 2781 1038 
Q 2781 1319 2576 1466 
Q 2372 1613 1978 1613 
L 1159 1613 
L 1159 459 
L 1978 459 
Q 2372 459 2576 607 
Q 2781 756 2781 1038 
z
M 581 3500 
L 1159 3500 
L 1159 2072 
L 2003 2072 
Q 2672 2072 3033 1817 
Q 3394 1563 3394 1038 
Q 3394 513 3033 256 
Q 2672 0 2003 0 
L 581 0 
L 581 3500 
z
" transform="scale(0.015625)"/>
        <path id="DejaVuSans-43a" d="M 581 3500 
L 1153 3500 
L 1153 1856 
L 2775 3500 
L 3481 3500 
L 2144 2147 
L 3653 0 
L 3009 0 
L 1769 1766 
L 1153 1141 
L 1153 0 
L 581 0 
L 581 3500 
z
" transform="scale(0.015625)"/>
        <path id="DejaVuSans-438" d="M 3578 3500 
L 3578 0 
L 3006 0 
L 3006 2809 
L 1319 0 
L 581 0 
L 581 3500 
L 1153 3500 
L 1153 697 
L 2838 3500 
L 3578 3500 
z
" transform="scale(0.015625)"/>
        <path id="DejaVuSans-20" transform="scale(0.015625)"/>
        <path id="DejaVuSans-434" d="M 1384 459 
L 3053 459 
L 3053 3041 
L 1844 3041 
L 1844 2603 
Q 1844 1316 1475 628 
L 1384 459 
z
M 550 459 
Q 834 584 959 850 
Q 1266 1509 1266 2838 
L 1266 3500 
L 3631 3500 
L 3631 459 
L 4091 459 
L 4091 -884 
L 3631 -884 
L 3631 0 
L 794 0 
L 794 -884 
L 334 -884 
L 334 459 
L 550 459 
z
" transform="scale(0.015625)"/>
        <path id="DejaVuSans-430" d="M 2194 1759 
Q 1497 1759 1228 1600 
Q 959 1441 959 1056 
Q 959 750 1161 570 
Q 1363 391 1709 391 
Q 2188 391 2477 730 
Q 2766 1069 2766 1631 
L 2766 1759 
L 2194 1759 
z
M 3341 1997 
L 3341 0 
L 2766 0 
L 2766 531 
Q 2569 213 2275 61 
Q 1981 -91 1556 -91 
Q 1019 -91 701 211 
Q 384 513 384 1019 
Q 384 1609 779 1909 
Q 1175 2209 1959 2209 
L 2766 2209 
L 2766 2266 
Q 2766 2663 2505 2880 
Q 2244 3097 1772 3097 
Q 1472 3097 1187 3025 
Q 903 2953 641 2809 
L 641 3341 
Q 956 3463 1253 3523 
Q 1550 3584 1831 3584 
Q 2591 3584 2966 3190 
Q 3341 2797 3341 1997 
z
" transform="scale(0.015625)"/>
        <path id="DejaVuSans-43d" d="M 581 3500 
L 1159 3500 
L 1159 2072 
L 3025 2072 
L 3025 3500 
L 3603 3500 
L 3603 0 
L 3025 0 
L 3025 1613 
L 1159 1613 
L 1159 0 
L 581 0 
L 581 3500 
z
" transform="scale(0.015625)"/>
       </defs>
       <use xlink:href="#DejaVuSans-422"/>
       <use xlink:href="#DejaVuSans-456" transform="translate(61.083984 0)"/>
       <use xlink:href="#DejaVuSans-43b" transform="translate(88.867188 0)"/>
       <use xlink:href="#DejaVuSans-44c" transform="translate(152.783203 0)"/>
       <use xlink:href="#DejaVuSans-43a" transform="translate(211.71875 0)"/>
       <use xlink:href="#DejaVuSans-438" transform="translate(272.119141 0)"/>
       <use xlink:href="#DejaVuSans-20" transform="translate(337.109375 0)"/>
       <use xlink:href="#DejaVuSans-434" transform="translate(368.896484 0)"/>
       <use xlink:href="#DejaVuSans-430" transform="translate(438.037109 0)"/>
       <use xlink:href="#DejaVuSans-43d" transform="translate(499.316406 0)"/>
       <use xlink:href="#DejaVuSans-43d" transform="translate(564.697266 0)"/>
       <use xlink:href="#DejaVuSans-456" transform="translate(630.078125 0)"/>
      </g>
      <!-- секвенування -->
      <g transform="translate(78.664181 255.85225) scale(0.1 -0.1)">
       <defs>
        <path id="DejaVuSans-441" d="M 3122 3366 
L 3122 2828 
Q 2878 2963 2633 3030 
Q 2388 3097 2138 3097 
Q 1578 3097 1268 2742 
Q 959 2388 959 1747 
Q 959 1106 1268 751 
Q 1578 397 2138 397 
Q 2388 397 2633 464 
Q 2878 531 3122 666 
L 3122 134 
Q 2881 22 2623 -34 
Q 2366 -91 2075 -91 
Q 1284 -91 818 406 
Q 353 903 353 1747 
Q 353 2603 823 3093 
Q 1294 3584 2113 3584 
Q 2378 3584 2631 3529 
Q 2884 3475 3122 3366 
z
" transform="scale(0.015625)"/>
        <path id="DejaVuSans-435" d="M 3597 1894 
L 3597 1613 
L 953 1613 
Q 991 1019 1311 708 
Q 1631 397 2203 397 
Q 2534 397 2845 478 
Q 3156 559 3463 722 
L 3463 178 
Q 3153 47 2828 -22 
Q 2503 -91 2169 -91 
Q 1331 -91 842 396 
Q 353 884 353 1716 
Q 353 2575 817 3079 
Q 1281 3584 2069 3584 
Q 2775 3584 3186 3129 
Q 3597 2675 3597 1894 
z
M 3022 2063 
Q 3016 2534 2758 2815 
Q 2500 3097 2075 3097 
Q 1594 3097 1305 2825 
Q 1016 2553 972 2059 
L 3022 2063 
z
" transform="scale(0.015625)"/>
        <path id="DejaVuSans-432" d="M 1156 1613 
L 1156 459 
L 1975 459 
Q 2369 459 2575 607 
Q 2781 756 2781 1038 
Q 2781 1319 2575 1466 
Q 2369 1613 1975 1613 
L 1156 1613 
z
M 1156 3041 
L 1156 2072 
L 1913 2072 
Q 2238 2072 2444 2201 
Q 2650 2331 2650 2563 
Q 2650 2794 2444 2917 
Q 2238 3041 1913 3041 
L 1156 3041 
z
M 581 3500 
L 1950 3500 
Q 2566 3500 2897 3275 
Q 3228 3050 3228 2634 
Q 3228 2313 3059 2123 
Q 2891 1934 2559 1888 
Q 2956 1813 3175 1575 
Q 3394 1338 3394 981 
Q 3394 513 3033 256 
Q 2672 0 2003 0 
L 581 0 
L 581 3500 
z
" transform="scale(0.015625)"/>
        <path id="DejaVuSans-443" d="M 2059 -325 
Q 1816 -950 1584 -1140 
Q 1353 -1331 966 -1331 
L 506 -1331 
L 506 -850 
L 844 -850 
Q 1081 -850 1212 -737 
Q 1344 -625 1503 -206 
L 1606 56 
L 191 3500 
L 800 3500 
L 1894 763 
L 2988 3500 
L 3597 3500 
L 2059 -325 
z
" transform="scale(0.015625)"/>
        <path id="DejaVuSans-44f" d="M 1181 2491 
Q 1181 2231 1381 2084 
Q 1581 1938 1953 1938 
L 2728 1938 
L 2728 3041 
L 1953 3041 
Q 1581 3041 1381 2897 
Q 1181 2753 1181 2491 
z
M 363 0 
L 1431 1534 
Q 1069 1616 828 1830 
Q 588 2044 588 2491 
Q 588 2997 923 3248 
Q 1259 3500 1938 3500 
L 3306 3500 
L 3306 0 
L 2728 0 
L 2728 1478 
L 2013 1478 
L 981 0 
L 363 0 
z
" transform="scale(0.015625)"/>
       </defs>
       <use xlink:href="#DejaVuSans-441"/>
       <use xlink:href="#DejaVuSans-435" transform="translate(54.980469 0)"/>
       <use xlink:href="#DejaVuSans-43a" transform="translate(116.503906 0)"/>
       <use xlink:href="#DejaVuSans-432" transform="translate(176.904297 0)"/>
       <use xlink:href="#DejaVuSans-435" transform="translate(235.839844 0)"/>
       <use xlink:href="#DejaVuSans-43d" transform="translate(297.363281 0)"/>
       <use xlink:href="#DejaVuSans-443" transform="translate(362.744141 0)"/>
       <use xlink:href="#DejaVuSans-432" transform="translate(421.923828 0)"/>
       <use xlink:href="#DejaVuSans-430" transform="translate(480.859375 0)"/>
       <use xlink:href="#DejaVuSans-43d" transform="translate(542.138672 0)"/>
       <use xlink:href="#DejaVuSans-43d" transform="translate(607.519531 0)"/>
       <use xlink:href="#DejaVuSans-44f" transform="translate(672.900391 0)"/>
      </g>
     </g>
    </g>
    <g id="xtick_2">
     <g id="line2d_2">
      <g>
       <use xlink:href="#m82a33cf7c9" x="226.971875" y="230.056" style="stroke: #000000; stroke-width: 0.8"/>
      </g>
     </g>
     <g id="text_2">
      <!-- Тільки протеомнi -->
      <g transform="translate(181.546875 244.654438) scale(0.1 -0.1)">
       <defs>
        <path id="DejaVuSans-43f" d="M 3603 3500 
L 3603 0 
L 3025 0 
L 3025 3041 
L 1159 3041 
L 1159 0 
L 581 0 
L 581 3500 
L 3603 3500 
z
" transform="scale(0.015625)"/>
        <path id="DejaVuSans-440" d="M 1159 525 
L 1159 -1331 
L 581 -1331 
L 581 3500 
L 1159 3500 
L 1159 2969 
Q 1341 3281 1617 3432 
Q 1894 3584 2278 3584 
Q 2916 3584 3314 3078 
Q 3713 2572 3713 1747 
Q 3713 922 3314 415 
Q 2916 -91 2278 -91 
Q 1894 -91 1617 61 
Q 1341 213 1159 525 
z
M 3116 1747 
Q 3116 2381 2855 2742 
Q 2594 3103 2138 3103 
Q 1681 3103 1420 2742 
Q 1159 2381 1159 1747 
Q 1159 1113 1420 752 
Q 1681 391 2138 391 
Q 2594 391 2855 752 
Q 3116 1113 3116 1747 
z
" transform="scale(0.015625)"/>
        <path id="DejaVuSans-43e" d="M 1959 3097 
Q 1497 3097 1228 2736 
Q 959 2375 959 1747 
Q 959 1119 1226 758 
Q 1494 397 1959 397 
Q 2419 397 2687 759 
Q 2956 1122 2956 1747 
Q 2956 2369 2687 2733 
Q 2419 3097 1959 3097 
z
M 1959 3584 
Q 2709 3584 3137 3096 
Q 3566 2609 3566 1747 
Q 3566 888 3137 398 
Q 2709 -91 1959 -91 
Q 1206 -91 779 398 
Q 353 888 353 1747 
Q 353 2609 779 3096 
Q 1206 3584 1959 3584 
z
" transform="scale(0.015625)"/>
        <path id="DejaVuSans-442" d="M 188 3500 
L 3541 3500 
L 3541 3041 
L 2147 3041 
L 2147 0 
L 1581 0 
L 1581 3041 
L 188 3041 
L 188 3500 
z
" transform="scale(0.015625)"/>
        <path id="DejaVuSans-43c" d="M 581 3500 
L 1422 3500 
L 2416 1156 
L 3413 3500 
L 4247 3500 
L 4247 0 
L 3669 0 
L 3669 2950 
L 2703 672 
L 2128 672 
L 1159 2950 
L 1159 0 
L 581 0 
L 581 3500 
z
" transform="scale(0.015625)"/>
        <path id="DejaVuSans-69" d="M 603 3500 
L 1178 3500 
L 1178 0 
L 603 0 
L 603 3500 
z
M 603 4863 
L 1178 4863 
L 1178 4134 
L 603 4134 
L 603 4863 
z
" transform="scale(0.015625)"/>
       </defs>
       <use xlink:href="#DejaVuSans-422"/>
       <use xlink:href="#DejaVuSans-456" transform="translate(61.083984 0)"/>
       <use xlink:href="#DejaVuSans-43b" transform="translate(88.867188 0)"/>
       <use xlink:href="#DejaVuSans-44c" transform="translate(152.783203 0)"/>
       <use xlink:href="#DejaVuSans-43a" transform="translate(211.71875 0)"/>
       <use xlink:href="#DejaVuSans-438" transform="translate(272.119141 0)"/>
       <use xlink:href="#DejaVuSans-20" transform="translate(337.109375 0)"/>
       <use xlink:href="#DejaVuSans-43f" transform="translate(368.896484 0)"/>
       <use xlink:href="#DejaVuSans-440" transform="translate(434.277344 0)"/>
       <use xlink:href="#DejaVuSans-43e" transform="translate(497.753906 0)"/>
       <use xlink:href="#DejaVuSans-442" transform="translate(558.935547 0)"/>
       <use xlink:href="#DejaVuSans-435" transform="translate(617.1875 0)"/>
       <use xlink:href="#DejaVuSans-43e" transform="translate(678.710938 0)"/>
       <use xlink:href="#DejaVuSans-43c" transform="translate(739.892578 0)"/>
       <use xlink:href="#DejaVuSans-43d" transform="translate(815.332031 0)"/>
       <use xlink:href="#DejaVuSans-69" transform="translate(880.712891 0)"/>
      </g>
      <!-- данні -->
      <g transform="translate(212.524219 255.85225) scale(0.1 -0.1)">
       <use xlink:href="#DejaVuSans-434"/>
       <use xlink:href="#DejaVuSans-430" transform="translate(69.140625 0)"/>
       <use xlink:href="#DejaVuSans-43d" transform="translate(130.419922 0)"/>
       <use xlink:href="#DejaVuSans-43d" transform="translate(195.800781 0)"/>
       <use xlink:href="#DejaVuSans-456" transform="translate(261.181641 0)"/>
      </g>
     </g>
    </g>
    <g id="xtick_3">
     <g id="line2d_3">
      <g>
       <use xlink:href="#m82a33cf7c9" x="338.625663" y="230.056" style="stroke: #000000; stroke-width: 0.8"/>
      </g>
     </g>
     <g id="text_3">
      <!-- Обидва типи -->
      <g transform="translate(304.620194 244.654438) scale(0.1 -0.1)">
       <defs>
        <path id="DejaVuSans-41e" d="M 2522 4238 
Q 1834 4238 1429 3725 
Q 1025 3213 1025 2328 
Q 1025 1447 1429 934 
Q 1834 422 2522 422 
Q 3209 422 3611 934 
Q 4013 1447 4013 2328 
Q 4013 3213 3611 3725 
Q 3209 4238 2522 4238 
z
M 2522 4750 
Q 3503 4750 4090 4092 
Q 4678 3434 4678 2328 
Q 4678 1225 4090 567 
Q 3503 -91 2522 -91 
Q 1538 -91 948 565 
Q 359 1222 359 2328 
Q 359 3434 948 4092 
Q 1538 4750 2522 4750 
z
" transform="scale(0.015625)"/>
        <path id="DejaVuSans-431" d="M 1991 3584 
Q 2741 3584 3169 3096 
Q 3597 2609 3597 1747 
Q 3597 888 3169 398 
Q 2741 -91 1991 -91 
Q 1238 -91 822 384 
Q 406 859 384 1747 
L 366 2463 
Q 350 2834 350 2963 
Q 350 3463 531 3831 
Q 816 4409 1308 4659 
Q 1800 4909 2625 4916 
Q 3006 4919 3175 4972 
L 3334 4516 
Q 3181 4453 3041 4450 
L 2259 4397 
Q 1866 4369 1628 4231 
Q 1006 3866 947 3388 
L 925 3213 
Q 1331 3584 1991 3584 
z
M 1991 3097 
Q 1528 3097 1259 2736 
Q 991 2375 991 1747 
Q 991 1119 1258 758 
Q 1525 397 1991 397 
Q 2450 397 2719 759 
Q 2988 1122 2988 1747 
Q 2988 2369 2719 2733 
Q 2450 3097 1991 3097 
z
" transform="scale(0.015625)"/>
       </defs>
       <use xlink:href="#DejaVuSans-41e"/>
       <use xlink:href="#DejaVuSans-431" transform="translate(78.710938 0)"/>
       <use xlink:href="#DejaVuSans-438" transform="translate(140.380859 0)"/>
       <use xlink:href="#DejaVuSans-434" transform="translate(205.371094 0)"/>
       <use xlink:href="#DejaVuSans-432" transform="translate(274.511719 0)"/>
       <use xlink:href="#DejaVuSans-430" transform="translate(333.447266 0)"/>
       <use xlink:href="#DejaVuSans-20" transform="translate(394.726562 0)"/>
       <use xlink:href="#DejaVuSans-442" transform="translate(426.513672 0)"/>
       <use xlink:href="#DejaVuSans-438" transform="translate(484.765625 0)"/>
       <use xlink:href="#DejaVuSans-43f" transform="translate(549.755859 0)"/>
       <use xlink:href="#DejaVuSans-438" transform="translate(615.136719 0)"/>
      </g>
     </g>
    </g>
    <g id="text_4">
     <!-- Типи даних -->
     <g transform="translate(190.481562 271.050063) scale(0.12 -0.12)">
      <defs>
       <path id="DejaVuSans-445" d="M 3513 3500 
L 2247 1797 
L 3578 0 
L 2900 0 
L 1881 1375 
L 863 0 
L 184 0 
L 1544 1831 
L 300 3500 
L 978 3500 
L 1906 2253 
L 2834 3500 
L 3513 3500 
z
" transform="scale(0.015625)"/>
      </defs>
      <use xlink:href="#DejaVuSans-422"/>
      <use xlink:href="#DejaVuSans-438" transform="translate(61.083984 0)"/>
      <use xlink:href="#DejaVuSans-43f" transform="translate(126.074219 0)"/>
      <use xlink:href="#DejaVuSans-438" transform="translate(191.455078 0)"/>
      <use xlink:href="#DejaVuSans-20" transform="translate(256.445312 0)"/>
      <use xlink:href="#DejaVuSans-434" transform="translate(288.232422 0)"/>
      <use xlink:href="#DejaVuSans-430" transform="translate(357.373047 0)"/>
      <use xlink:href="#DejaVuSans-43d" transform="translate(418.652344 0)"/>
      <use xlink:href="#DejaVuSans-438" transform="translate(484.033203 0)"/>
      <use xlink:href="#DejaVuSans-445" transform="translate(549.023438 0)"/>
     </g>
    </g>
   </g>
   <g id="matplotlib.axis_2">
    <g id="ytick_1">
     <g id="line2d_4">
      <defs>
       <path id="mf0adffaf53" d="M 0 0 
L -3.5 0 
" style="stroke: #000000; stroke-width: 0.8"/>
      </defs>
      <g>
       <use xlink:href="#mf0adffaf53" x="42.743125" y="230.056" style="stroke: #000000; stroke-width: 0.8"/>
      </g>
     </g>
     <g id="text_5">
      <!-- 0 -->
      <g transform="translate(29.380625 233.855219) scale(0.1 -0.1)">
       <defs>
        <path id="DejaVuSans-30" d="M 2034 4250 
Q 1547 4250 1301 3770 
Q 1056 3291 1056 2328 
Q 1056 1369 1301 889 
Q 1547 409 2034 409 
Q 2525 409 2770 889 
Q 3016 1369 3016 2328 
Q 3016 3291 2770 3770 
Q 2525 4250 2034 4250 
z
M 2034 4750 
Q 2819 4750 3233 4129 
Q 3647 3509 3647 2328 
Q 3647 1150 3233 529 
Q 2819 -91 2034 -91 
Q 1250 -91 836 529 
Q 422 1150 422 2328 
Q 422 3509 836 4129 
Q 1250 4750 2034 4750 
z
" transform="scale(0.015625)"/>
       </defs>
       <use xlink:href="#DejaVuSans-30"/>
      </g>
     </g>
    </g>
    <g id="ytick_2">
     <g id="line2d_5">
      <g>
       <use xlink:href="#mf0adffaf53" x="42.743125" y="200.577693" style="stroke: #000000; stroke-width: 0.8"/>
      </g>
     </g>
     <g id="text_6">
      <!-- 10 -->
      <g transform="translate(23.018125 204.376912) scale(0.1 -0.1)">
       <defs>
        <path id="DejaVuSans-31" d="M 794 531 
L 1825 531 
L 1825 4091 
L 703 3866 
L 703 4441 
L 1819 4666 
L 2450 4666 
L 2450 531 
L 3481 531 
L 3481 0 
L 794 0 
L 794 531 
z
" transform="scale(0.015625)"/>
       </defs>
       <use xlink:href="#DejaVuSans-31"/>
       <use xlink:href="#DejaVuSans-30" transform="translate(63.623047 0)"/>
      </g>
     </g>
    </g>
    <g id="ytick_3">
     <g id="line2d_6">
      <g>
       <use xlink:href="#mf0adffaf53" x="42.743125" y="171.099386" style="stroke: #000000; stroke-width: 0.8"/>
      </g>
     </g>
     <g id="text_7">
      <!-- 20 -->
      <g transform="translate(23.018125 174.898605) scale(0.1 -0.1)">
       <defs>
        <path id="DejaVuSans-32" d="M 1228 531 
L 3431 531 
L 3431 0 
L 469 0 
L 469 531 
Q 828 903 1448 1529 
Q 2069 2156 2228 2338 
Q 2531 2678 2651 2914 
Q 2772 3150 2772 3378 
Q 2772 3750 2511 3984 
Q 2250 4219 1831 4219 
Q 1534 4219 1204 4116 
Q 875 4013 500 3803 
L 500 4441 
Q 881 4594 1212 4672 
Q 1544 4750 1819 4750 
Q 2544 4750 2975 4387 
Q 3406 4025 3406 3419 
Q 3406 3131 3298 2873 
Q 3191 2616 2906 2266 
Q 2828 2175 2409 1742 
Q 1991 1309 1228 531 
z
" transform="scale(0.015625)"/>
       </defs>
       <use xlink:href="#DejaVuSans-32"/>
       <use xlink:href="#DejaVuSans-30" transform="translate(63.623047 0)"/>
      </g>
     </g>
    </g>
    <g id="ytick_4">
     <g id="line2d_7">
      <g>
       <use xlink:href="#mf0adffaf53" x="42.743125" y="141.621079" style="stroke: #000000; stroke-width: 0.8"/>
      </g>
     </g>
     <g id="text_8">
      <!-- 30 -->
      <g transform="translate(23.018125 145.420298) scale(0.1 -0.1)">
       <defs>
        <path id="DejaVuSans-33" d="M 2597 2516 
Q 3050 2419 3304 2112 
Q 3559 1806 3559 1356 
Q 3559 666 3084 287 
Q 2609 -91 1734 -91 
Q 1441 -91 1130 -33 
Q 819 25 488 141 
L 488 750 
Q 750 597 1062 519 
Q 1375 441 1716 441 
Q 2309 441 2620 675 
Q 2931 909 2931 1356 
Q 2931 1769 2642 2001 
Q 2353 2234 1838 2234 
L 1294 2234 
L 1294 2753 
L 1863 2753 
Q 2328 2753 2575 2939 
Q 2822 3125 2822 3475 
Q 2822 3834 2567 4026 
Q 2313 4219 1838 4219 
Q 1578 4219 1281 4162 
Q 984 4106 628 3988 
L 628 4550 
Q 988 4650 1302 4700 
Q 1616 4750 1894 4750 
Q 2613 4750 3031 4423 
Q 3450 4097 3450 3541 
Q 3450 3153 3228 2886 
Q 3006 2619 2597 2516 
z
" transform="scale(0.015625)"/>
       </defs>
       <use xlink:href="#DejaVuSans-33"/>
       <use xlink:href="#DejaVuSans-30" transform="translate(63.623047 0)"/>
      </g>
     </g>
    </g>
    <g id="ytick_5">
     <g id="line2d_8">
      <g>
       <use xlink:href="#mf0adffaf53" x="42.743125" y="112.142772" style="stroke: #000000; stroke-width: 0.8"/>
      </g>
     </g>
     <g id="text_9">
      <!-- 40 -->
      <g transform="translate(23.018125 115.941991) scale(0.1 -0.1)">
       <defs>
        <path id="DejaVuSans-34" d="M 2419 4116 
L 825 1625 
L 2419 1625 
L 2419 4116 
z
M 2253 4666 
L 3047 4666 
L 3047 1625 
L 3713 1625 
L 3713 1100 
L 3047 1100 
L 3047 0 
L 2419 0 
L 2419 1100 
L 313 1100 
L 313 1709 
L 2253 4666 
z
" transform="scale(0.015625)"/>
       </defs>
       <use xlink:href="#DejaVuSans-34"/>
       <use xlink:href="#DejaVuSans-30" transform="translate(63.623047 0)"/>
      </g>
     </g>
    </g>
    <g id="ytick_6">
     <g id="line2d_9">
      <g>
       <use xlink:href="#mf0adffaf53" x="42.743125" y="82.664466" style="stroke: #000000; stroke-width: 0.8"/>
      </g>
     </g>
     <g id="text_10">
      <!-- 50 -->
      <g transform="translate(23.018125 86.463684) scale(0.1 -0.1)">
       <defs>
        <path id="DejaVuSans-35" d="M 691 4666 
L 3169 4666 
L 3169 4134 
L 1269 4134 
L 1269 2991 
Q 1406 3038 1543 3061 
Q 1681 3084 1819 3084 
Q 2600 3084 3056 2656 
Q 3513 2228 3513 1497 
Q 3513 744 3044 326 
Q 2575 -91 1722 -91 
Q 1428 -91 1123 -41 
Q 819 9 494 109 
L 494 744 
Q 775 591 1075 516 
Q 1375 441 1709 441 
Q 2250 441 2565 725 
Q 2881 1009 2881 1497 
Q 2881 1984 2565 2268 
Q 2250 2553 1709 2553 
Q 1456 2553 1204 2497 
Q 953 2441 691 2322 
L 691 4666 
z
" transform="scale(0.015625)"/>
       </defs>
       <use xlink:href="#DejaVuSans-35"/>
       <use xlink:href="#DejaVuSans-30" transform="translate(63.623047 0)"/>
      </g>
     </g>
    </g>
    <g id="ytick_7">
     <g id="line2d_10">
      <g>
       <use xlink:href="#mf0adffaf53" x="42.743125" y="53.186159" style="stroke: #000000; stroke-width: 0.8"/>
      </g>
     </g>
     <g id="text_11">
      <!-- 60 -->
      <g transform="translate(23.018125 56.985377) scale(0.1 -0.1)">
       <defs>
        <path id="DejaVuSans-36" d="M 2113 2584 
Q 1688 2584 1439 2293 
Q 1191 2003 1191 1497 
Q 1191 994 1439 701 
Q 1688 409 2113 409 
Q 2538 409 2786 701 
Q 3034 994 3034 1497 
Q 3034 2003 2786 2293 
Q 2538 2584 2113 2584 
z
M 3366 4563 
L 3366 3988 
Q 3128 4100 2886 4159 
Q 2644 4219 2406 4219 
Q 1781 4219 1451 3797 
Q 1122 3375 1075 2522 
Q 1259 2794 1537 2939 
Q 1816 3084 2150 3084 
Q 2853 3084 3261 2657 
Q 3669 2231 3669 1497 
Q 3669 778 3244 343 
Q 2819 -91 2113 -91 
Q 1303 -91 875 529 
Q 447 1150 447 2328 
Q 447 3434 972 4092 
Q 1497 4750 2381 4750 
Q 2619 4750 2861 4703 
Q 3103 4656 3366 4563 
z
" transform="scale(0.015625)"/>
       </defs>
       <use xlink:href="#DejaVuSans-36"/>
       <use xlink:href="#DejaVuSans-30" transform="translate(63.623047 0)"/>
      </g>
     </g>
    </g>
    <g id="ytick_8">
     <g id="line2d_11">
      <g>
       <use xlink:href="#mf0adffaf53" x="42.743125" y="23.707852" style="stroke: #000000; stroke-width: 0.8"/>
      </g>
     </g>
     <g id="text_12">
      <!-- 70 -->
      <g transform="translate(23.018125 27.507071) scale(0.1 -0.1)">
       <defs>
        <path id="DejaVuSans-37" d="M 525 4666 
L 3525 4666 
L 3525 4397 
L 1831 0 
L 1172 0 
L 2766 4134 
L 525 4134 
L 525 4666 
z
" transform="scale(0.015625)"/>
       </defs>
       <use xlink:href="#DejaVuSans-37"/>
       <use xlink:href="#DejaVuSans-30" transform="translate(63.623047 0)"/>
      </g>
     </g>
    </g>
    <g id="text_13">
     <!-- Кількість публікацій -->
     <g transform="translate(16.5225 183.082063) rotate(-90) scale(0.12 -0.12)">
      <defs>
       <path id="DejaVuSans-41a" d="M 628 4666 
L 1259 4666 
L 1259 2359 
L 3516 4666 
L 4325 4666 
L 2522 2822 
L 4419 0 
L 3731 0 
L 2113 2403 
L 1259 1531 
L 1259 0 
L 628 0 
L 628 4666 
z
" transform="scale(0.015625)"/>
       <path id="DejaVuSans-446" d="M 3603 0 
L 581 0 
L 581 3500 
L 1159 3500 
L 1159 459 
L 3025 459 
L 3025 3500 
L 3603 3500 
L 3603 459 
L 4063 459 
L 4063 -884 
L 3603 -884 
L 3603 0 
z
" transform="scale(0.015625)"/>
       <path id="DejaVuSans-439" d="M 3578 3500 
L 3578 0 
L 3006 0 
L 3006 2809 
L 1319 0 
L 581 0 
L 581 3500 
L 1153 3500 
L 1153 697 
L 2838 3500 
L 3578 3500 
z
M 1103 4862 
L 1472 4862 
Q 1506 4628 1657 4510 
Q 1809 4393 2081 4393 
Q 2350 4393 2500 4509 
Q 2650 4625 2691 4862 
L 3059 4862 
Q 3028 4415 2781 4190 
Q 2534 3965 2081 3965 
Q 1628 3965 1381 4190 
Q 1134 4415 1103 4862 
z
" transform="scale(0.015625)"/>
      </defs>
      <use xlink:href="#DejaVuSans-41a"/>
      <use xlink:href="#DejaVuSans-456" transform="translate(70.996094 0)"/>
      <use xlink:href="#DejaVuSans-43b" transform="translate(98.779297 0)"/>
      <use xlink:href="#DejaVuSans-44c" transform="translate(162.695312 0)"/>
      <use xlink:href="#DejaVuSans-43a" transform="translate(221.630859 0)"/>
      <use xlink:href="#DejaVuSans-456" transform="translate(282.03125 0)"/>
      <use xlink:href="#DejaVuSans-441" transform="translate(309.814453 0)"/>
      <use xlink:href="#DejaVuSans-442" transform="translate(364.794922 0)"/>
      <use xlink:href="#DejaVuSans-44c" transform="translate(423.046875 0)"/>
      <use xlink:href="#DejaVuSans-20" transform="translate(481.982422 0)"/>
      <use xlink:href="#DejaVuSans-43f" transform="translate(513.769531 0)"/>
      <use xlink:href="#DejaVuSans-443" transform="translate(579.150391 0)"/>
      <use xlink:href="#DejaVuSans-431" transform="translate(638.330078 0)"/>
      <use xlink:href="#DejaVuSans-43b" transform="translate(700 0)"/>
      <use xlink:href="#DejaVuSans-456" transform="translate(763.916016 0)"/>
      <use xlink:href="#DejaVuSans-43a" transform="translate(791.699219 0)"/>
      <use xlink:href="#DejaVuSans-430" transform="translate(852.099609 0)"/>
      <use xlink:href="#DejaVuSans-446" transform="translate(913.378906 0)"/>
      <use xlink:href="#DejaVuSans-456" transform="translate(981.445312 0)"/>
      <use xlink:href="#DejaVuSans-439" transform="translate(1009.228516 0)"/>
     </g>
    </g>
   </g>
   <g id="patch_12">
    <path d="M 42.743125 230.056 
L 42.743125 7.2 
" style="fill: none; stroke: #000000; stroke-width: 0.8; stroke-linejoin: miter; stroke-linecap: square"/>
   </g>
   <g id="patch_13">
    <path d="M 42.743125 230.056 
L 411.200625 230.056 
" style="fill: none; stroke: #000000; stroke-width: 0.8; stroke-linejoin: miter; stroke-linecap: square"/>
   </g>
   <g id="text_14">
    <!-- 7 -->
    <g transform="translate(111.500587 223.049843) scale(0.12 -0.12)">
     <use xlink:href="#DejaVuSans-37"/>
    </g>
   </g>
   <g id="text_15">
    <!-- 6 -->
    <g transform="translate(334.808163 224.523758) scale(0.12 -0.12)">
     <use xlink:href="#DejaVuSans-36"/>
    </g>
   </g>
   <g id="text_16">
    <!-- 2 -->
    <g transform="translate(111.500587 209.784604) scale(0.12 -0.12)">
     <use xlink:href="#DejaVuSans-32"/>
    </g>
   </g>
   <g id="text_17">
    <!-- 6 -->
    <g transform="translate(223.154375 224.523758) scale(0.12 -0.12)">
     <use xlink:href="#DejaVuSans-36"/>
    </g>
   </g>
   <g id="text_18">
    <!-- 1 -->
    <g transform="translate(334.808163 214.206351) scale(0.12 -0.12)">
     <use xlink:href="#DejaVuSans-31"/>
    </g>
   </g>
   <g id="text_19">
    <!-- 9 -->
    <g transform="translate(111.500587 193.571536) scale(0.12 -0.12)">
     <defs>
      <path id="DejaVuSans-39" d="M 703 97 
L 703 672 
Q 941 559 1184 500 
Q 1428 441 1663 441 
Q 2288 441 2617 861 
Q 2947 1281 2994 2138 
Q 2813 1869 2534 1725 
Q 2256 1581 1919 1581 
Q 1219 1581 811 2004 
Q 403 2428 403 3163 
Q 403 3881 828 4315 
Q 1253 4750 1959 4750 
Q 2769 4750 3195 4129 
Q 3622 3509 3622 2328 
Q 3622 1225 3098 567 
Q 2575 -91 1691 -91 
Q 1453 -91 1209 -44 
Q 966 3 703 97 
z
M 1959 2075 
Q 2384 2075 2632 2365 
Q 2881 2656 2881 3163 
Q 2881 3666 2632 3958 
Q 2384 4250 1959 4250 
Q 1534 4250 1286 3958 
Q 1038 3666 1038 3163 
Q 1038 2656 1286 2365 
Q 1534 2075 1959 2075 
z
" transform="scale(0.015625)"/>
     </defs>
     <use xlink:href="#DejaVuSans-39"/>
    </g>
   </g>
   <g id="text_20">
    <!-- 32 -->
    <g transform="translate(219.336875 168.514975) scale(0.12 -0.12)">
     <use xlink:href="#DejaVuSans-33"/>
     <use xlink:href="#DejaVuSans-32" transform="translate(63.623047 0)"/>
    </g>
   </g>
   <g id="text_21">
    <!-- 65 -->
    <g transform="translate(330.990663 116.927938) scale(0.12 -0.12)">
     <use xlink:href="#DejaVuSans-36"/>
     <use xlink:href="#DejaVuSans-35" transform="translate(63.623047 0)"/>
    </g>
   </g>
   <g id="legend_1">
    <g id="patch_14">
     <path d="M 418.200625 74.082813 
L 559.331875 74.082813 
Q 561.331875 74.082813 561.331875 72.082813 
L 561.331875 14.2 
Q 561.331875 12.2 559.331875 12.2 
L 418.200625 12.2 
Q 416.200625 12.2 416.200625 14.2 
L 416.200625 72.082813 
Q 416.200625 74.082813 418.200625 74.082813 
z
" style="fill: #ffffff; opacity: 0.8; stroke: #cccccc; stroke-linejoin: miter"/>
    </g>
    <g id="text_22">
     <!-- Набори даних -->
     <g transform="translate(451.788125 23.96875) scale(0.1 -0.1)">
      <defs>
       <path id="DejaVuSans-41d" d="M 628 4666 
L 1259 4666 
L 1259 2753 
L 3553 2753 
L 3553 4666 
L 4184 4666 
L 4184 0 
L 3553 0 
L 3553 2222 
L 1259 2222 
L 1259 0 
L 628 0 
L 628 4666 
z
" transform="scale(0.015625)"/>
      </defs>
      <use xlink:href="#DejaVuSans-41d"/>
      <use xlink:href="#DejaVuSans-430" transform="translate(75.195312 0)"/>
      <use xlink:href="#DejaVuSans-431" transform="translate(136.474609 0)"/>
      <use xlink:href="#DejaVuSans-43e" transform="translate(198.144531 0)"/>
      <use xlink:href="#DejaVuSans-440" transform="translate(259.326172 0)"/>
      <use xlink:href="#DejaVuSans-438" transform="translate(322.802734 0)"/>
      <use xlink:href="#DejaVuSans-20" transform="translate(387.792969 0)"/>
      <use xlink:href="#DejaVuSans-434" transform="translate(419.580078 0)"/>
      <use xlink:href="#DejaVuSans-430" transform="translate(488.720703 0)"/>
      <use xlink:href="#DejaVuSans-43d" transform="translate(550 0)"/>
      <use xlink:href="#DejaVuSans-438" transform="translate(615.380859 0)"/>
      <use xlink:href="#DejaVuSans-445" transform="translate(680.371094 0)"/>
     </g>
    </g>
    <g id="patch_15">
     <path d="M 420.200625 38.646875 
L 440.200625 38.646875 
L 440.200625 31.646875 
L 420.200625 31.646875 
z
" style="fill: #fde725"/>
    </g>
    <g id="text_23">
     <!-- не органоїд/тканина -->
     <g transform="translate(448.200625 38.646875) scale(0.1 -0.1)">
      <defs>
       <path id="DejaVuSans-433" d="M 581 0 
L 581 3500 
L 3050 3500 
L 3050 3041 
L 1159 3041 
L 1159 0 
L 581 0 
z
" transform="scale(0.015625)"/>
       <path id="DejaVuSans-457" d="M 603 3500 
L 1178 3500 
L 1178 0 
L 603 0 
L 603 3500 
z
M 891 3584 
L 891 3584 
z
M 1184 4850 
L 1819 4850 
L 1819 4219 
L 1184 4219 
L 1184 4850 
z
M -38 4850 
L 597 4850 
L 597 4219 
L -38 4219 
L -38 4850 
z
" transform="scale(0.015625)"/>
       <path id="DejaVuSans-2f" d="M 1625 4666 
L 2156 4666 
L 531 -594 
L 0 -594 
L 1625 4666 
z
" transform="scale(0.015625)"/>
      </defs>
      <use xlink:href="#DejaVuSans-43d"/>
      <use xlink:href="#DejaVuSans-435" transform="translate(65.380859 0)"/>
      <use xlink:href="#DejaVuSans-20" transform="translate(126.904297 0)"/>
      <use xlink:href="#DejaVuSans-43e" transform="translate(158.691406 0)"/>
      <use xlink:href="#DejaVuSans-440" transform="translate(219.873047 0)"/>
      <use xlink:href="#DejaVuSans-433" transform="translate(283.349609 0)"/>
      <use xlink:href="#DejaVuSans-430" transform="translate(335.888672 0)"/>
      <use xlink:href="#DejaVuSans-43d" transform="translate(397.167969 0)"/>
      <use xlink:href="#DejaVuSans-43e" transform="translate(462.548828 0)"/>
      <use xlink:href="#DejaVuSans-457" transform="translate(523.730469 0)"/>
      <use xlink:href="#DejaVuSans-434" transform="translate(551.513672 0)"/>
      <use xlink:href="#DejaVuSans-2f" transform="translate(620.654297 0)"/>
      <use xlink:href="#DejaVuSans-442" transform="translate(654.345703 0)"/>
      <use xlink:href="#DejaVuSans-43a" transform="translate(712.597656 0)"/>
      <use xlink:href="#DejaVuSans-430" transform="translate(772.998047 0)"/>
      <use xlink:href="#DejaVuSans-43d" transform="translate(834.277344 0)"/>
      <use xlink:href="#DejaVuSans-438" transform="translate(899.658203 0)"/>
      <use xlink:href="#DejaVuSans-43d" transform="translate(964.648438 0)"/>
      <use xlink:href="#DejaVuSans-430" transform="translate(1030.029297 0)"/>
     </g>
    </g>
    <g id="patch_16">
     <path d="M 420.200625 53.325 
L 440.200625 53.325 
L 440.200625 46.325 
L 420.200625 46.325 
z
" style="fill: #b8de29"/>
    </g>
    <g id="text_24">
     <!-- органоїд і тканина -->
     <g transform="translate(448.200625 53.325) scale(0.1 -0.1)">
      <use xlink:href="#DejaVuSans-43e"/>
      <use xlink:href="#DejaVuSans-440" transform="translate(61.181641 0)"/>
      <use xlink:href="#DejaVuSans-433" transform="translate(124.658203 0)"/>
      <use xlink:href="#DejaVuSans-430" transform="translate(177.197266 0)"/>
      <use xlink:href="#DejaVuSans-43d" transform="translate(238.476562 0)"/>
      <use xlink:href="#DejaVuSans-43e" transform="translate(303.857422 0)"/>
      <use xlink:href="#DejaVuSans-457" transform="translate(365.039062 0)"/>
      <use xlink:href="#DejaVuSans-434" transform="translate(392.822266 0)"/>
      <use xlink:href="#DejaVuSans-20" transform="translate(461.962891 0)"/>
      <use xlink:href="#DejaVuSans-456" transform="translate(493.75 0)"/>
      <use xlink:href="#DejaVuSans-20" transform="translate(521.533203 0)"/>
      <use xlink:href="#DejaVuSans-442" transform="translate(553.320312 0)"/>
      <use xlink:href="#DejaVuSans-43a" transform="translate(611.572266 0)"/>
      <use xlink:href="#DejaVuSans-430" transform="translate(671.972656 0)"/>
      <use xlink:href="#DejaVuSans-43d" transform="translate(733.251953 0)"/>
      <use xlink:href="#DejaVuSans-438" transform="translate(798.632812 0)"/>
      <use xlink:href="#DejaVuSans-43d" transform="translate(863.623047 0)"/>
      <use xlink:href="#DejaVuSans-430" transform="translate(929.003906 0)"/>
     </g>
    </g>
    <g id="patch_17">
     <path d="M 420.200625 68.003125 
L 440.200625 68.003125 
L 440.200625 61.003125 
L 420.200625 61.003125 
z
" style="fill: #6dcd59"/>
    </g>
    <g id="text_25">
     <!-- органоїд/тканина -->
     <g transform="translate(448.200625 68.003125) scale(0.1 -0.1)">
      <use xlink:href="#DejaVuSans-43e"/>
      <use xlink:href="#DejaVuSans-440" transform="translate(61.181641 0)"/>
      <use xlink:href="#DejaVuSans-433" transform="translate(124.658203 0)"/>
      <use xlink:href="#DejaVuSans-430" transform="translate(177.197266 0)"/>
      <use xlink:href="#DejaVuSans-43d" transform="translate(238.476562 0)"/>
      <use xlink:href="#DejaVuSans-43e" transform="translate(303.857422 0)"/>
      <use xlink:href="#DejaVuSans-457" transform="translate(365.039062 0)"/>
      <use xlink:href="#DejaVuSans-434" transform="translate(392.822266 0)"/>
      <use xlink:href="#DejaVuSans-2f" transform="translate(461.962891 0)"/>
      <use xlink:href="#DejaVuSans-442" transform="translate(495.654297 0)"/>
      <use xlink:href="#DejaVuSans-43a" transform="translate(553.90625 0)"/>
      <use xlink:href="#DejaVuSans-430" transform="translate(614.306641 0)"/>
      <use xlink:href="#DejaVuSans-43d" transform="translate(675.585938 0)"/>
      <use xlink:href="#DejaVuSans-438" transform="translate(740.966797 0)"/>
      <use xlink:href="#DejaVuSans-43d" transform="translate(805.957031 0)"/>
      <use xlink:href="#DejaVuSans-430" transform="translate(871.337891 0)"/>
     </g>
    </g>
   </g>
  </g>
 </g>
 <defs>
  <clipPath id="p0ec94eb774">
   <rect x="42.743125" y="7.2" width="368.4575" height="222.856"/>
  </clipPath>
 </defs>
</svg>
